<svg width="26" height="32" viewBox="0 0 26 32" fill="none" xmlns="http://www.w3.org/2000/svg">
<g id="Symbol" clip-path="url(#clip0_648_8285)">
<path id="Vector" d="M20.3927 7.80255C21.1204 7.89594 21.9215 8.1657 22.7958 8.61186C23.6702 9.05802 24.4607 9.78432 25.178 10.8063C25.1361 10.8478 24.9372 10.9931 24.5812 11.2473C24.2251 11.5015 23.8272 11.8647 23.3874 12.3523C22.9477 12.84 22.5602 13.447 22.2304 14.1888C21.9005 14.9307 21.733 15.8126 21.733 16.8346C21.733 18.0071 21.9424 18.998 22.3613 19.8177C22.7801 20.6373 23.267 21.291 23.8272 21.789C24.3874 22.2871 24.8796 22.6502 25.3141 22.8837C25.7487 23.1171 25.9791 23.2365 26.0052 23.252C25.9895 23.3091 25.8168 23.7916 25.4817 24.7046C25.1466 25.6177 24.5916 26.6293 23.822 27.7499C23.1466 28.7149 22.4241 29.6072 21.6492 30.4268C20.8744 31.2465 19.9424 31.6512 18.8534 31.6512C18.1257 31.6512 17.5288 31.5474 17.0576 31.3347C16.5864 31.122 16.11 30.9145 15.6126 30.7018C15.1152 30.4891 14.4503 30.3853 13.6126 30.3853C12.7749 30.3853 12.1257 30.4943 11.5812 30.7122C11.0367 30.9301 10.5236 31.148 10.0367 31.3659C9.54975 31.5837 8.97384 31.6927 8.31415 31.6927C7.30891 31.6927 6.42933 31.2984 5.67541 30.5099C4.92148 29.7213 4.14137 28.7719 3.34556 27.6721C2.4241 26.3647 1.63876 24.7669 0.984307 22.8837C0.329856 21.0005 0.00524902 19.0965 0.00524902 17.1718C0.00524902 15.1174 0.397919 13.3899 1.17802 11.9944C1.95813 10.5988 2.9686 9.54049 4.19897 8.82975C5.42933 8.11901 6.70158 7.75586 8.02096 7.75586C8.72253 7.75586 9.38221 7.87 10 8.09307C10.6178 8.31615 11.199 8.54442 11.7435 8.77787C12.288 9.01133 12.7801 9.12546 13.2199 9.12546C13.6597 9.12546 14.1414 9.00095 14.7068 8.75712C15.2723 8.51329 15.9005 8.26946 16.6021 8.03082C17.3037 7.79218 18.0524 7.67286 18.8482 7.67286C19.1518 7.67286 19.6649 7.71955 20.3927 7.81812V7.80255ZM15.6911 6.6716C14.8796 7.10219 14.11 7.31489 13.3822 7.31489C13.2304 7.31489 13.089 7.29933 12.9477 7.27339C12.932 7.23189 12.9215 7.15926 12.9058 7.05031C12.8901 6.94137 12.8848 6.82723 12.8848 6.70273C12.8848 5.88304 13.0628 5.09449 13.4189 4.32149C13.7749 3.5485 14.1833 2.91558 14.6335 2.41236C15.2094 1.73275 15.9372 1.16727 16.8168 0.715926C17.6964 0.264581 18.534 0.0259393 19.3299 0C19.3717 0.176388 19.3927 0.38909 19.3927 0.63292C19.3927 1.4526 19.2356 2.24116 18.9162 3.01415C18.5969 3.78714 18.1937 4.46675 17.7016 5.06855C17.1676 5.70666 16.4922 6.24101 15.6806 6.6716H15.6911Z" fill="white"/>
</g>
<defs>
<clipPath id="clip0_648_8285">
<rect width="26" height="31.6875" fill="white"/>
</clipPath>
</defs>
</svg>
